HIERARCHY
ROOT Hips
{
  OFFSET 26.4356 102.102 -134.057
  CHANNELS 6 Xposition Yposition Zposition Zrotation Xrotation Yrotation
  JOINT RightUpLeg
  {
    OFFSET -8.9458 -8.66707 0.101652
    CHANNELS 3 Zrotation Xrotation Yrotation
    JOINT RightLeg
    {
      OFFSET 0 -44.4227 1.3727
      CHANNELS 3 Zrotation Xrotation Yrotation
      JOINT RightFoot
      {
        OFFSET 0.253549 -42.0924 -1.46059
        CHANNELS 3 Zrotation Xrotation Yrotation
        JOINT RightToes
        {
          OFFSET 0.04 -4.41509 8.4991
          CHANNELS 3 Zrotation Xrotation Yrotation
          End Site
          {
            OFFSET -0.08 -0.137448 9.77979
          }
        }
      }
    }
  }
  JOINT Spine
  {
    OFFSET 0 11.8905 0
    CHANNELS 3 Zrotation Xrotation Yrotation
    JOINT Spine1
    {
      OFFSET 0 25.6574 0.127663
      CHANNELS 3 Zrotation Xrotation Yrotation
      JOINT HEad
      {
        OFFSET 0 8.73416 0.011341
        CHANNELS 3 Zrotation Xrotation Yrotation
        End Site
        {
          OFFSET -0.29 12.7742 2.51395
        }
      }
      JOINT LeftShoulder1
      {
        OFFSET 8.99 -0.362252 -0.22
        CHANNELS 3 Zrotation Xrotation Yrotation
        JOINT LeftArm
        {
          OFFSET 10.2827 -0.00338 0.322123
          CHANNELS 3 Zrotation Xrotation Yrotation
          JOINT LeftForeArm
          {
            OFFSET 32.7669 0.099144 -1.42434
            CHANNELS 3 Zrotation Xrotation Yrotation
            JOINT LeftHand
            {
              OFFSET 27.5643 0.085362 1.02216
              CHANNELS 3 Zrotation Xrotation Yrotation
              End Site
              {
                OFFSET 16.7443 -0.6 1.50291
              }
            }
          }
        }
      }
      JOINT RightShoulder
      {
        OFFSET -8.99 -0.362252 -0.22
        CHANNELS 3 Zrotation Xrotation Yrotation
        JOINT RightArm
        {
          OFFSET -10.2827 -0.00338 0.322123
          CHANNELS 3 Zrotation Xrotation Yrotation
          JOINT RightForeArm
          {
            OFFSET -32.8971 0.099144 -1.42434
            CHANNELS 3 Zrotation Xrotation Yrotation
            JOINT RightHand
            {
              OFFSET -27.4921 0.085362 1.02216
              CHANNELS 3 Zrotation Xrotation Yrotation
              End Site
              {
                OFFSET -16.6312 -0.6 1.50291
              }
            }
          }
        }
      }
    }
  }
  JOINT LeftUpLeg
  {
    OFFSET 8.9458 -8.66707 0.101652
    CHANNELS 3 Zrotation Xrotation Yrotation
    JOINT LeftLeg
    {
      OFFSET 0 -44.4227 1.3727
      CHANNELS 3 Zrotation Xrotation Yrotation
      JOINT LeftFoot
      {
        OFFSET -0.253549 -42.0924 -1.46059
        CHANNELS 3 Zrotation Xrotation Yrotation
        JOINT LeftToes
        {
          OFFSET -0.04 -4.41509 8.4991
          CHANNELS 3 Zrotation Xrotation Yrotation
          End Site
          {
            OFFSET 0.08 -0.047448 9.77979
          }
        }
      }
    }
  }
}
MOTION
Frames:	10
Frame Time:	0.0166667
4.14329 101.792 65.2321 2.46229 -0.285805 -9.34345 -1.11545 -11.3306 -8.67815 -34.1714 57.4574 34.6116 9.78712 9.92323 -1.17046 6.68672 21.2612 19.3431 1.763 3.02742 -0.914646 -3.19713 -5.09006 -0.34619 -4.24889 -1.68358 7.69102 -1.10348e-032 -3.97569e-016 -1.59028e-015 -62.3131 -50.864 25.747 -24.4287 14.3113 -12.4706 0.368473 9.90896 -0.00117926 -11.7907 -0.313309 13.2097 107.266 -21.0687 21.8833 14.3893 14.801 16.0688 -0.369625 9.91382 0.00119887 -5.54905 -15.4743 -7.56014 -4.1344 11.1003 18.1237 -6.04802 -10.6653 -0.37031 3.02047e-011 -5.12069e-013 -8.75149e-012 
4.28458 101.986 66.7537 2.54115 -0.0641806 -9.65928 -0.323243 -14.2716 -6.05821 -36.7389 60.3161 35.2387 10.5898 10.8384 -1.33188 5.92594 18.7764 15.8748 1.5097 3.08927 -0.917759 -3.22707 -4.91712 -0.333921 -4.18636 -2.14893 7.87183 -4.96962e-017 1.98785e-016 -4.77083e-015 -63.9734 -50.5769 23.6954 -24.3541 14.4449 -13.0842 0.368473 9.90896 -0.00117926 -11.7049 -0.299003 13.1195 107.371 -21.5881 21.4859 14.177 14.6594 15.2083 -0.369625 9.91382 0.00119887 -5.67018 -14.7205 -7.35253 -4.32645 11.0404 18.2408 -5.90725 -11.6312 -0.407926 3.02092e-011 -5.04118e-013 -8.75135e-012 
4.38117 102.174 68.2248 2.54613 0.184073 -10.0822 0.811206 -17.0999 -3.0899 -38.3814 63.0337 34.5812 10.9083 9.79969 -1.29382 4.78066 15.2342 12.1167 1.29489 3.13794 -0.903863 -3.20328 -4.73229 -0.319104 -4.11653 -2.63889 8.09624 -1.10348e-032 -1.98785e-016 -3.18055e-015 -65.7061 -50.1723 21.4951 -24.3193 14.5997 -13.7904 0.368473 9.90896 -0.00117926 -11.6407 -0.288685 13.0638 107.465 -21.9956 21.1695 13.9935 14.5247 14.3422 -0.369625 9.91382 0.00119887 -5.65382 -13.9836 -6.9149 -4.47615 10.9457 18.2411 -5.85594 -12.5665 -0.450554 3.02091e-011 -5.05708e-013 -8.75136e-012 
4.40611 102.328 69.6547 2.60977 0.438543 -10.5575 2.01097 -19.9078 -0.509162 -39.7965 65.464 33.9123 9.02065 6.64799 -0.88717 3.49384 12.7056 8.31257 1.08014 3.16984 -0.901987 -3.30875 -4.51567 -0.308398 -3.88871 -3.17834 8.45827 -2.48481e-017 0 -0 -67.4427 -49.7502 18.9854 -24.2455 14.7236 -14.3623 0.368473 9.90896 -0.00117926 -11.6721 -0.292382 13.0855 107.689 -22.2178 20.9634 13.7981 14.3869 13.4356 -0.369625 9.91382 0.00119887 -5.63813 -13.3061 -6.34798 -4.6087 10.9235 18.1211 -6.00767 -13.5693 -0.516033 3.02116e-011 -5.12069e-013 -8.75182e-012 
4.4156 102.456 71.0608 2.66887 0.628901 -10.9199 3.23788 -22.4576 1.59379 -40.4264 67.2481 32.4577 6.54096 2.79451 -0.43514 2.19499 10.2499 4.88624 0.834467 3.22147 -0.898625 -3.46995 -4.22559 -0.295 -3.64518 -3.67382 8.68697 -6.21202e-018 -4.96962e-017 -0 -69.3431 -49.1923 16.1581 -24.1084 14.8412 -14.9318 0.368473 9.90896 -0.00117926 -11.5925 -0.27868 12.8908 107.748 -22.3515 20.7195 13.7149 14.2586 12.5583 -0.369625 9.91382 0.00119887 -5.67745 -12.5719 -5.87668 -4.6899 10.901 17.938 -6.19756 -14.5395 -0.583656 3.02053e-011 -5.07298e-013 -8.75126e-012 
4.46538 102.561 72.4679 2.69888 0.639489 -10.9201 4.20325 -24.5109 2.62146 -40.219 67.8316 29.8891 4.41416 -0.235752 -0.232007 1.14584 7.41025 2.41813 0.494854 3.34917 -0.890011 -3.70534 -3.78312 -0.272839 -3.5215 -3.99022 8.43714 -7.45443e-017 -9.93923e-017 3.18055e-015 -71.5731 -48.3859 12.8988 -23.8205 14.9572 -15.5635 0.368473 9.90896 -0.00117926 -11.1521 -0.205718 12.0813 107.329 -22.4542 20.29 13.8845 14.1469 11.7203 -0.369625 9.91382 0.00119887 -5.88603 -11.6357 -5.83107 -4.69869 10.8234 17.7239 -6.26134 -15.382 -0.63345 3.02081e-011 -5.05708e-013 -8.7512e-012 
4.52993 102.639 73.8624 2.7024 0.588728 -10.7543 4.99892 -26.2689 3.17287 -39.0816 67.5405 26.7729 2.5906 -2.93528 -0.133963 0.328836 4.87235 0.737146 0.118889 3.48979 -0.875955 -3.92259 -3.28006 -0.24645 -3.42412 -4.28317 8.02142 -1.49089e-016 3.97569e-016 -0 -73.894 -47.3658 9.48316 -23.4884 15.0749 -16.2333 0.368473 9.90896 -0.00117926 -10.5483 -0.113388 11.0141 106.62 -22.5698 19.6998 14.2215 14.0642 11.065 -0.369625 9.91382 0.00119887 -6.16834 -10.6396 -5.98728 -4.62152 10.7438 17.5505 -6.30482 -16.1802 -0.679467 3.02039e-011 -5.08889e-013 -8.75043e-012 
4.60337 102.684 75.2162 2.70026 0.551869 -10.6463 5.82366 -27.8684 3.86908 -36.9478 66.582 23.7644 1.41121 -5.27224 -0.112817 -0.060487 3.267 0.0672731 -0.282291 3.5973 -0.851705 -4.02036 -2.73983 -0.215321 -3.30114 -4.74913 7.75748 -3.97569e-016 -7.95139e-016 3.18055e-015 -76.1713 -46.248 6.12627 -23.2206 15.2096 -16.978 0.368473 9.90896 -0.00117926 -10.0257 -0.0372361 10.0053 105.851 -22.7254 18.9913 14.6539 14.0335 10.7855 -0.369625 9.91382 0.00119887 -6.50474 -9.69478 -6.19709 -4.40775 10.7077 17.6023 -6.39313 -17.0214 -0.732103 3.02074e-011 -5.08889e-013 -8.75153e-012 
4.68251 102.719 76.5967 2.61974 0.54148 -10.2638 6.48428 -29.198 4.18463 -34.117 64.872 20.7995 0.708575 -7.29632 -0.129719 -0.207702 2.19988 -0.168795 -0.63227 3.67664 -0.827153 -4.04356 -2.28861 -0.188421 -3.14644 -5.1283 7.28766 2.98177e-016 7.95139e-016 -0 -78.3797 -44.7922 2.80553 -22.9229 15.3297 -17.68 0.368473 9.90896 -0.00117926 -9.20079 0.0492038 8.77906 104.571 -23.0277 17.9594 15.2865 14.036 10.742 -0.369625 9.91382 0.00119887 -6.80755 -8.7439 -6.56775 -4.14403 10.6845 17.5721 -6.48715 -17.7984 -0.783245 3.02098e-011 -5.07298e-013 -8.75125e-012 
4.76676 102.791 78.0925 2.32581 0.594822 -9.12477 6.74823 -30.1165 3.5013 -30.6835 62.2996 18.0225 0.515305 -9.049 -0.133162 -0.405836 1.55605 -0.528439 -0.789459 3.71074 -0.813116 -3.9978 -2.09463 -0.177359 -2.91758 -5.1218 6.16582 7.95139e-016 -3.97569e-016 1.59028e-015 -80.4256 -42.6196 -0.459156 -22.4888 15.3955 -18.178 0.368473 9.90896 -0.00117926 -7.4938 0.180763 6.94473 102.036 -23.6782 16.2263 16.3204 14.0621 10.8831 -0.369625 9.91382 0.00119887 -6.92994 -7.67865 -7.29951 -3.89973 10.5602 17.1414 -6.58538 -18.3589 -0.827461 3.02128e-011 -5.12069e-013 -8.75169e-012 
